ply
format ascii 1.0
comment Created by Blender 2.71 (sub 0) - www.blender.org, source file: ''
element vertex 576
property float x
property float y
property float z
property float nx
property float ny
property float nz
element face 144
property list uchar uint vertex_indices
end_header
0.000287 0.004913 0.008819 -0.999782 0.003667 0.020575
0.000190 0.002813 0.005313 -0.999782 0.003667 0.020575
0.000379 -0.000375 0.014250 -0.999782 0.003667 0.020575
0.000405 0.003773 0.015594 -0.999782 0.003667 0.020575
0.000405 0.003773 0.015594 -0.997499 -0.015259 0.069009
0.000379 -0.000375 0.014250 -0.997499 -0.015259 0.069009
0.000933 -0.001813 0.022000 -0.997499 -0.015259 0.069009
0.000890 0.003004 0.022375 -0.997499 -0.015259 0.069009
0.000190 0.002813 0.005313 -0.999576 -0.026934 0.011055
0.000211 0.000000 0.000000 -0.999576 -0.026934 0.011055
0.000423 -0.004000 0.009813 -0.999576 -0.026934 0.011055
0.000379 -0.000375 0.014250 -0.999576 -0.026934 0.011055
0.000379 -0.000375 0.014250 -0.995886 -0.072263 0.054678
0.000423 -0.004000 0.009813 -0.995886 -0.072263 0.054678
0.001190 -0.007350 0.019800 -0.995886 -0.072263 0.054678
0.000933 -0.001813 0.022000 -0.995886 -0.072263 0.054678
0.000287 0.004913 0.008819 -0.996559 0.076895 0.030940
0.000405 0.003773 0.015594 -0.996559 0.076895 0.030940
0.000656 0.007969 0.013125 -0.996559 0.076895 0.030940
0.000405 0.008023 0.005031 -0.996559 0.076895 0.030940
0.000405 0.008023 0.005031 -0.981477 0.189208 0.030070
0.000656 0.007969 0.013125 -0.981477 0.189208 0.030070
0.001167 0.011484 0.008125 -0.981477 0.189208 0.030070
0.000890 0.011332 -0.000422 -0.981477 0.189208 0.030070
0.000405 0.003773 0.015594 -0.991204 0.104560 0.081125
0.000890 0.003004 0.022375 -0.991204 0.104560 0.081125
0.001167 0.007578 0.020000 -0.991204 0.104560 0.081125
0.000656 0.007969 0.013125 -0.991204 0.104560 0.081125
0.000656 0.007969 0.013125 -0.961991 0.259407 0.085331
0.001167 0.007578 0.020000 -0.961991 0.259407 0.085331
0.001732 0.011289 0.015156 -0.961991 0.259407 0.085331
0.001167 0.011484 0.008125 -0.961991 0.259407 0.085331
0.000287 0.004913 0.008819 -0.999152 0.041145 -0.001849
0.000405 0.008023 0.005031 -0.999152 0.041145 -0.001849
0.000379 0.006625 -0.003000 -0.999152 0.041145 -0.001849
0.000190 0.002813 0.005313 -0.999152 0.041145 -0.001849
0.000190 0.002813 0.005313 -0.999722 0.018999 -0.013931
0.000379 0.006625 -0.003000 -0.999722 0.018999 -0.013931
0.000423 0.004000 -0.009813 -0.999722 0.018999 -0.013931
0.000211 0.000000 0.000000 -0.999722 0.018999 -0.013931
0.000405 0.008023 0.005031 -0.992832 0.118011 -0.018899
0.000890 0.011332 -0.000422 -0.992832 0.118011 -0.018899
0.000933 0.010094 -0.009813 -0.992832 0.118011 -0.018899
0.000379 0.006625 -0.003000 -0.992832 0.118011 -0.018899
0.000379 0.006625 -0.003000 -0.995526 0.083386 -0.044449
0.000933 0.010094 -0.009813 -0.995526 0.083386 -0.044449
0.001190 0.007350 -0.019800 -0.995526 0.083386 -0.044449
0.000423 0.004000 -0.009813 -0.995526 0.083386 -0.044449
0.002456 0.013826 -0.008944 -0.122476 0.988201 -0.091971
0.002880 0.014297 -0.005313 -0.122476 0.988201 -0.091971
0.003719 0.013594 -0.013125 -0.122476 0.988201 -0.091971
0.002847 0.013336 -0.015594 -0.122476 0.988201 -0.091971
0.002847 0.013336 -0.015594 0.397993 0.888410 -0.228755
0.003719 0.013594 -0.013125 0.397993 0.888410 -0.228755
0.004448 0.011484 -0.020000 0.397993 0.888410 -0.228755
0.003451 0.011332 -0.022375 0.397993 0.888410 -0.228755
0.002880 0.014297 -0.005313 0.387023 0.921195 -0.040158
0.003500 0.014258 0.000000 0.387023 0.921195 -0.040158
0.004448 0.013516 -0.008125 0.387023 0.921195 -0.040158
0.003719 0.013594 -0.013125 0.387023 0.921195 -0.040158
0.003719 0.013594 -0.013125 0.779664 0.617234 -0.105579
0.004448 0.013516 -0.008125 0.779664 0.617234 -0.105579
0.005268 0.011289 -0.015156 0.779664 0.617234 -0.105579
0.004448 0.011484 -0.020000 0.779664 0.617234 -0.105579
0.002456 0.013826 -0.008944 -0.783181 0.615044 -0.091371
0.002847 0.013336 -0.015594 -0.783181 0.615044 -0.091371
0.001838 0.012250 -0.014250 -0.783181 0.615044 -0.091371
0.001681 0.013336 -0.005594 -0.783181 0.615044 -0.091371
0.001681 0.013336 -0.005594 -0.958260 0.282014 -0.046967
0.001838 0.012250 -0.014250 -0.958260 0.282014 -0.046967
0.000933 0.010094 -0.009813 -0.958260 0.282014 -0.046967
0.000890 0.011332 -0.000422 -0.958260 0.282014 -0.046967
0.002847 0.013336 -0.015594 -0.798634 0.559461 -0.221783
0.003451 0.011332 -0.022375 -0.798634 0.559461 -0.221783
0.002355 0.010094 -0.022000 -0.798634 0.559461 -0.221783
0.001838 0.012250 -0.014250 -0.798634 0.559461 -0.221783
0.001838 0.012250 -0.014250 -0.960714 0.253903 -0.112083
0.002355 0.010094 -0.022000 -0.960714 0.253903 -0.112083
0.001190 0.007350 -0.019800 -0.960714 0.253903 -0.112083
0.000933 0.010094 -0.009813 -0.960714 0.253903 -0.112083
0.002456 0.013826 -0.008944 -0.623576 0.781681 -0.011303
0.001681 0.013336 -0.005594 -0.623576 0.781681 -0.011303
0.001969 0.013594 0.001875 -0.623576 0.781681 -0.011303
0.002880 0.014297 -0.005313 -0.623576 0.781681 -0.011303
0.002880 0.014297 -0.005313 -0.349650 0.935757 0.045866
0.001969 0.013594 0.001875 -0.349650 0.935757 0.045866
0.002552 0.013516 0.008125 -0.349650 0.935757 0.045866
0.003500 0.014258 0.000000 -0.349650 0.935757 0.045866
0.001681 0.013336 -0.005594 -0.910652 0.412612 0.021565
0.000890 0.011332 -0.000422 -0.910652 0.412612 0.021565
0.001167 0.011484 0.008125 -0.910652 0.412612 0.021565
0.001969 0.013594 0.001875 -0.910652 0.412612 0.021565
0.001969 0.013594 0.001875 -0.823304 0.561536 0.082753
0.001167 0.011484 0.008125 -0.823304 0.561536 0.082753
0.001732 0.011289 0.015156 -0.823304 0.561536 0.082753
0.002552 0.013516 0.008125 -0.823304 0.561536 0.082753
0.000287 -0.004913 -0.008819 -0.996559 -0.076895 -0.030940
0.000405 -0.003773 -0.015594 -0.996559 -0.076895 -0.030940
0.000656 -0.007969 -0.013125 -0.996559 -0.076895 -0.030940
0.000405 -0.008023 -0.005031 -0.996559 -0.076895 -0.030940
0.000405 -0.008023 -0.005031 -0.981477 -0.189208 -0.030070
0.000656 -0.007969 -0.013125 -0.981477 -0.189208 -0.030070
0.001167 -0.011484 -0.008125 -0.981477 -0.189208 -0.030070
0.000890 -0.011332 0.000422 -0.981477 -0.189208 -0.030070
0.000405 -0.003773 -0.015594 -0.991204 -0.104560 -0.081125
0.000890 -0.003004 -0.022375 -0.991204 -0.104560 -0.081125
0.001167 -0.007578 -0.020000 -0.991204 -0.104560 -0.081125
0.000656 -0.007969 -0.013125 -0.991204 -0.104560 -0.081125
0.000656 -0.007969 -0.013125 -0.961991 -0.259407 -0.085331
0.001167 -0.007578 -0.020000 -0.961991 -0.259407 -0.085331
0.001732 -0.011289 -0.015156 -0.961991 -0.259407 -0.085331
0.001167 -0.011484 -0.008125 -0.961991 -0.259407 -0.085331
0.000287 -0.004913 -0.008819 -0.999152 -0.041145 0.001849
0.000405 -0.008023 -0.005031 -0.999152 -0.041145 0.001849
0.000379 -0.006625 0.003000 -0.999152 -0.041145 0.001849
0.000190 -0.002813 -0.005313 -0.999152 -0.041145 0.001849
0.000190 -0.002813 -0.005313 -0.999722 -0.018999 0.013931
0.000379 -0.006625 0.003000 -0.999722 -0.018999 0.013931
0.000423 -0.004000 0.009813 -0.999722 -0.018999 0.013931
0.000211 0.000000 0.000000 -0.999722 -0.018999 0.013931
0.000405 -0.008023 -0.005031 -0.992832 -0.118011 0.018899
0.000890 -0.011332 0.000422 -0.992832 -0.118011 0.018899
0.000933 -0.010094 0.009813 -0.992832 -0.118011 0.018899
0.000379 -0.006625 0.003000 -0.992832 -0.118011 0.018899
0.000379 -0.006625 0.003000 -0.995526 -0.083386 0.044449
0.000933 -0.010094 0.009813 -0.995526 -0.083386 0.044449
0.001190 -0.007350 0.019800 -0.995526 -0.083386 0.044449
0.000423 -0.004000 0.009813 -0.995526 -0.083386 0.044449
0.000287 -0.004913 -0.008819 -0.999782 -0.003667 -0.020575
0.000190 -0.002813 -0.005313 -0.999782 -0.003667 -0.020575
0.000379 0.000375 -0.014250 -0.999782 -0.003667 -0.020575
0.000405 -0.003773 -0.015594 -0.999782 -0.003667 -0.020575
0.000405 -0.003773 -0.015594 -0.997499 0.015259 -0.069009
0.000379 0.000375 -0.014250 -0.997499 0.015259 -0.069009
0.000933 0.001813 -0.022000 -0.997499 0.015259 -0.069009
0.000890 -0.003004 -0.022375 -0.997499 0.015259 -0.069009
0.000190 -0.002813 -0.005313 -0.999576 0.026934 -0.011055
0.000211 0.000000 0.000000 -0.999576 0.026934 -0.011055
0.000423 0.004000 -0.009813 -0.999576 0.026934 -0.011055
0.000379 0.000375 -0.014250 -0.999576 0.026934 -0.011055
0.000379 0.000375 -0.014250 -0.995886 0.072263 -0.054678
0.000423 0.004000 -0.009813 -0.995886 0.072263 -0.054678
0.001190 0.007350 -0.019800 -0.995886 0.072263 -0.054678
0.000933 0.001813 -0.022000 -0.995886 0.072263 -0.054678
0.002471 -0.004913 -0.027542 0.127151 -0.330140 -0.935329
0.002880 -0.002813 -0.028375 0.127151 -0.330140 -0.935329
0.003850 -0.006625 -0.026750 0.127151 -0.330140 -0.935329
0.002913 -0.008023 -0.026531 0.127151 -0.330140 -0.935329
0.002913 -0.008023 -0.026531 0.699802 -0.509801 -0.500380
0.003850 -0.006625 -0.026750 0.699802 -0.509801 -0.500380
0.004645 -0.010094 -0.022000 0.699802 -0.509801 -0.500380
0.003549 -0.011332 -0.022375 0.699802 -0.509801 -0.500380
0.002880 -0.002813 -0.028375 0.710780 -0.113091 -0.694264
0.003500 0.000000 -0.028188 0.710780 -0.113091 -0.694264
0.004645 -0.004000 -0.026375 0.710780 -0.113091 -0.694264
0.003850 -0.006625 -0.026750 0.710780 -0.113091 -0.694264
0.003850 -0.006625 -0.026750 0.936244 -0.204910 -0.285410
0.004645 -0.004000 -0.026375 0.936244 -0.204910 -0.285410
0.005810 -0.007350 -0.019800 0.936244 -0.204910 -0.285410
0.004645 -0.010094 -0.022000 0.936244 -0.204910 -0.285410
0.002471 -0.004913 -0.027542 -0.885175 -0.256657 -0.388063
0.002913 -0.008023 -0.026531 -0.885175 -0.256657 -0.388063
0.001969 -0.007969 -0.024375 -0.885175 -0.256657 -0.388063
0.001681 -0.003773 -0.026531 -0.885175 -0.256657 -0.388063
0.001681 -0.003773 -0.026531 -0.975776 -0.146727 -0.162275
0.001969 -0.007969 -0.024375 -0.975776 -0.146727 -0.162275
0.001167 -0.007578 -0.020000 -0.975776 -0.146727 -0.162275
0.000890 -0.003004 -0.022375 -0.975776 -0.146727 -0.162275
0.002913 -0.008023 -0.026531 -0.758908 -0.557120 -0.337160
0.003549 -0.011332 -0.022375 -0.758908 -0.557120 -0.337160
0.002552 -0.011484 -0.020000 -0.758908 -0.557120 -0.337160
0.001969 -0.007969 -0.024375 -0.758908 -0.557120 -0.337160
0.001969 -0.007969 -0.024375 -0.932775 -0.330824 -0.143131
0.002552 -0.011484 -0.020000 -0.932775 -0.330824 -0.143131
0.001732 -0.011289 -0.015156 -0.932775 -0.330824 -0.143131
0.001167 -0.007578 -0.020000 -0.932775 -0.330824 -0.143131
0.002471 -0.004913 -0.027542 -0.833946 -0.017340 -0.551573
0.001681 -0.003773 -0.026531 -0.833946 -0.017340 -0.551573
0.001838 0.000375 -0.026750 -0.833946 -0.017340 -0.551573
0.002880 -0.002813 -0.028375 -0.833946 -0.017340 -0.551573
0.002880 -0.002813 -0.028375 -0.620731 0.176432 -0.763914
0.001838 0.000375 -0.026750 -0.620731 0.176432 -0.763914
0.002355 0.004000 -0.026375 -0.620731 0.176432 -0.763914
0.003500 0.000000 -0.028188 -0.620731 0.176432 -0.763914
0.001681 -0.003773 -0.026531 -0.980876 0.025303 -0.192981
0.000890 -0.003004 -0.022375 -0.980876 0.025303 -0.192981
0.000933 0.001813 -0.022000 -0.980876 0.025303 -0.192981
0.001838 0.000375 -0.026750 -0.980876 0.025303 -0.192981
0.001838 0.000375 -0.026750 -0.959928 0.148008 -0.237973
0.000933 0.001813 -0.022000 -0.959928 0.148008 -0.237973
0.001190 0.007350 -0.019800 -0.959928 0.148008 -0.237973
0.002355 0.004000 -0.026375 -0.959928 0.148008 -0.237973
0.004529 0.004913 -0.027542 0.833946 0.017340 -0.551573
0.005319 0.003773 -0.026531 0.833946 0.017340 -0.551573
0.005163 -0.000375 -0.026750 0.833946 0.017340 -0.551573
0.004120 0.002813 -0.028375 0.833946 0.017340 -0.551573
0.004120 0.002813 -0.028375 0.620731 -0.176432 -0.763914
0.005163 -0.000375 -0.026750 0.620731 -0.176432 -0.763914
0.004645 -0.004000 -0.026375 0.620731 -0.176432 -0.763914
0.003500 0.000000 -0.028188 0.620731 -0.176432 -0.763914
0.005319 0.003773 -0.026531 0.980876 -0.025303 -0.192981
0.006110 0.003004 -0.022375 0.980876 -0.025303 -0.192981
0.006067 -0.001813 -0.022000 0.980876 -0.025303 -0.192981
0.005163 -0.000375 -0.026750 0.980876 -0.025303 -0.192981
0.005163 -0.000375 -0.026750 0.959929 -0.148008 -0.237973
0.006067 -0.001813 -0.022000 0.959929 -0.148008 -0.237973
0.005810 -0.007350 -0.019800 0.959929 -0.148008 -0.237973
0.004645 -0.004000 -0.026375 0.959929 -0.148008 -0.237973
0.004529 0.004913 -0.027542 -0.127151 0.330140 -0.935329
0.004120 0.002813 -0.028375 -0.127151 0.330140 -0.935329
0.003150 0.006625 -0.026750 -0.127151 0.330140 -0.935329
0.004087 0.008023 -0.026531 -0.127151 0.330140 -0.935329
0.004087 0.008023 -0.026531 -0.699802 0.509801 -0.500380
0.003150 0.006625 -0.026750 -0.699802 0.509801 -0.500380
0.002355 0.010094 -0.022000 -0.699802 0.509801 -0.500380
0.003451 0.011332 -0.022375 -0.699802 0.509801 -0.500380
0.004120 0.002813 -0.028375 -0.710780 0.113091 -0.694263
0.003500 0.000000 -0.028188 -0.710780 0.113091 -0.694263
0.002355 0.004000 -0.026375 -0.710780 0.113091 -0.694263
0.003150 0.006625 -0.026750 -0.710780 0.113091 -0.694263
0.003150 0.006625 -0.026750 -0.936244 0.204910 -0.285410
0.002355 0.004000 -0.026375 -0.936244 0.204910 -0.285410
0.001190 0.007350 -0.019800 -0.936244 0.204910 -0.285410
0.002355 0.010094 -0.022000 -0.936244 0.204910 -0.285410
0.004529 0.004913 -0.027542 0.885175 0.256657 -0.388063
0.004087 0.008023 -0.026531 0.885175 0.256657 -0.388063
0.005031 0.007969 -0.024375 0.885175 0.256657 -0.388063
0.005319 0.003773 -0.026531 0.885175 0.256657 -0.388063
0.005319 0.003773 -0.026531 0.975776 0.146727 -0.162275
0.005031 0.007969 -0.024375 0.975776 0.146727 -0.162275
0.005833 0.007578 -0.020000 0.975776 0.146727 -0.162275
0.006110 0.003004 -0.022375 0.975776 0.146727 -0.162275
0.004087 0.008023 -0.026531 0.758908 0.557120 -0.337160
0.003451 0.011332 -0.022375 0.758908 0.557120 -0.337160
0.004448 0.011484 -0.020000 0.758908 0.557120 -0.337160
0.005031 0.007969 -0.024375 0.758908 0.557120 -0.337160
0.005031 0.007969 -0.024375 0.932775 0.330824 -0.143131
0.004448 0.011484 -0.020000 0.932775 0.330824 -0.143131
0.005268 0.011289 -0.015156 0.932775 0.330824 -0.143131
0.005833 0.007578 -0.020000 0.932775 0.330824 -0.143131
0.002471 0.004913 0.027542 0.127151 0.330140 0.935329
0.002880 0.002813 0.028375 0.127151 0.330140 0.935329
0.003850 0.006625 0.026750 0.127151 0.330140 0.935329
0.002913 0.008023 0.026531 0.127151 0.330140 0.935329
0.002913 0.008023 0.026531 0.699802 0.509801 0.500380
0.003850 0.006625 0.026750 0.699802 0.509801 0.500380
0.004645 0.010094 0.022000 0.699802 0.509801 0.500380
0.003549 0.011332 0.022375 0.699802 0.509801 0.500380
0.002880 0.002813 0.028375 0.710780 0.113091 0.694264
0.003500 0.000000 0.028188 0.710780 0.113091 0.694264
0.004645 0.004000 0.026375 0.710780 0.113091 0.694264
0.003850 0.006625 0.026750 0.710780 0.113091 0.694264
0.003850 0.006625 0.026750 0.936244 0.204910 0.285410
0.004645 0.004000 0.026375 0.936244 0.204910 0.285410
0.005810 0.007350 0.019800 0.936244 0.204910 0.285410
0.004645 0.010094 0.022000 0.936244 0.204910 0.285410
0.002471 0.004913 0.027542 -0.885175 0.256657 0.388063
0.002913 0.008023 0.026531 -0.885175 0.256657 0.388063
0.001969 0.007969 0.024375 -0.885175 0.256657 0.388063
0.001681 0.003773 0.026531 -0.885175 0.256657 0.388063
0.001681 0.003773 0.026531 -0.975776 0.146727 0.162275
0.001969 0.007969 0.024375 -0.975776 0.146727 0.162275
0.001167 0.007578 0.020000 -0.975776 0.146727 0.162275
0.000890 0.003004 0.022375 -0.975776 0.146727 0.162275
0.002913 0.008023 0.026531 -0.758908 0.557120 0.337160
0.003549 0.011332 0.022375 -0.758908 0.557120 0.337160
0.002552 0.011484 0.020000 -0.758908 0.557120 0.337160
0.001969 0.007969 0.024375 -0.758908 0.557120 0.337160
0.001969 0.007969 0.024375 -0.932775 0.330824 0.143131
0.002552 0.011484 0.020000 -0.932775 0.330824 0.143131
0.001732 0.011289 0.015156 -0.932775 0.330824 0.143131
0.001167 0.007578 0.020000 -0.932775 0.330824 0.143131
0.002471 0.004913 0.027542 -0.833946 0.017340 0.551573
0.001681 0.003773 0.026531 -0.833946 0.017340 0.551573
0.001838 -0.000375 0.026750 -0.833946 0.017340 0.551573
0.002880 0.002813 0.028375 -0.833946 0.017340 0.551573
0.002880 0.002813 0.028375 -0.620731 -0.176432 0.763914
0.001838 -0.000375 0.026750 -0.620731 -0.176432 0.763914
0.002355 -0.004000 0.026375 -0.620731 -0.176432 0.763914
0.003500 0.000000 0.028188 -0.620731 -0.176432 0.763914
0.001681 0.003773 0.026531 -0.980876 -0.025303 0.192981
0.000890 0.003004 0.022375 -0.980876 -0.025303 0.192981
0.000933 -0.001813 0.022000 -0.980876 -0.025303 0.192981
0.001838 -0.000375 0.026750 -0.980876 -0.025303 0.192981
0.001838 -0.000375 0.026750 -0.959928 -0.148008 0.237973
0.000933 -0.001813 0.022000 -0.959928 -0.148008 0.237973
0.001190 -0.007350 0.019800 -0.959928 -0.148008 0.237973
0.002355 -0.004000 0.026375 -0.959928 -0.148008 0.237973
0.004544 0.013826 0.008944 0.783181 0.615044 0.091371
0.004153 0.013336 0.015594 0.783181 0.615044 0.091371
0.005163 0.012250 0.014250 0.783181 0.615044 0.091371
0.005319 0.013336 0.005594 0.783181 0.615044 0.091371
0.005319 0.013336 0.005594 0.958260 0.282014 0.046967
0.005163 0.012250 0.014250 0.958260 0.282014 0.046967
0.006067 0.010094 0.009813 0.958260 0.282014 0.046967
0.006110 0.011332 0.000422 0.958260 0.282014 0.046967
0.004153 0.013336 0.015594 0.798634 0.559461 0.221783
0.003549 0.011332 0.022375 0.798634 0.559461 0.221783
0.004645 0.010094 0.022000 0.798634 0.559461 0.221783
0.005163 0.012250 0.014250 0.798634 0.559461 0.221783
0.005163 0.012250 0.014250 0.960714 0.253903 0.112083
0.004645 0.010094 0.022000 0.960714 0.253903 0.112083
0.005810 0.007350 0.019800 0.960714 0.253903 0.112083
0.006067 0.010094 0.009813 0.960714 0.253903 0.112083
0.004544 0.013826 0.008944 0.623576 0.781681 0.011303
0.005319 0.013336 0.005594 0.623576 0.781681 0.011303
0.005031 0.013594 -0.001875 0.623576 0.781681 0.011303
0.004120 0.014297 0.005313 0.623576 0.781681 0.011303
0.004120 0.014297 0.005313 0.349650 0.935757 -0.045866
0.005031 0.013594 -0.001875 0.349650 0.935757 -0.045866
0.004448 0.013516 -0.008125 0.349650 0.935757 -0.045866
0.003500 0.014258 0.000000 0.349650 0.935757 -0.045866
0.005319 0.013336 0.005594 0.910652 0.412612 -0.021565
0.006110 0.011332 0.000422 0.910652 0.412612 -0.021565
0.005833 0.011484 -0.008125 0.910652 0.412612 -0.021565
0.005031 0.013594 -0.001875 0.910652 0.412612 -0.021565
0.005031 0.013594 -0.001875 0.823304 0.561536 -0.082753
0.005833 0.011484 -0.008125 0.823304 0.561536 -0.082753
0.005268 0.011289 -0.015156 0.823304 0.561536 -0.082753
0.004448 0.013516 -0.008125 0.823304 0.561536 -0.082753
0.004544 0.013826 0.008944 0.122476 0.988201 0.091971
0.004120 0.014297 0.005313 0.122476 0.988201 0.091971
0.003281 0.013594 0.013125 0.122476 0.988201 0.091971
0.004153 0.013336 0.015594 0.122476 0.988201 0.091971
0.004153 0.013336 0.015594 -0.397993 0.888410 0.228755
0.003281 0.013594 0.013125 -0.397993 0.888410 0.228755
0.002552 0.011484 0.020000 -0.397993 0.888410 0.228755
0.003549 0.011332 0.022375 -0.397993 0.888410 0.228755
0.004120 0.014297 0.005313 -0.387023 0.921195 0.040158
0.003500 0.014258 0.000000 -0.387023 0.921195 0.040158
0.002552 0.013516 0.008125 -0.387023 0.921195 0.040158
0.003281 0.013594 0.013125 -0.387023 0.921195 0.040158
0.003281 0.013594 0.013125 -0.779664 0.617234 0.105579
0.002552 0.013516 0.008125 -0.779664 0.617234 0.105579
0.001732 0.011289 0.015156 -0.779664 0.617234 0.105579
0.002552 0.011484 0.020000 -0.779664 0.617234 0.105579
0.002456 -0.013826 0.008944 -0.122476 -0.988201 0.091971
0.002880 -0.014297 0.005313 -0.122476 -0.988201 0.091971
0.003719 -0.013594 0.013125 -0.122476 -0.988201 0.091971
0.002847 -0.013336 0.015594 -0.122476 -0.988201 0.091971
0.002847 -0.013336 0.015594 0.397993 -0.888410 0.228755
0.003719 -0.013594 0.013125 0.397993 -0.888410 0.228755
0.004448 -0.011484 0.020000 0.397993 -0.888410 0.228755
0.003451 -0.011332 0.022375 0.397993 -0.888410 0.228755
0.002880 -0.014297 0.005313 0.387023 -0.921195 0.040158
0.003500 -0.014258 0.000000 0.387023 -0.921195 0.040158
0.004448 -0.013516 0.008125 0.387023 -0.921195 0.040158
0.003719 -0.013594 0.013125 0.387023 -0.921195 0.040158
0.003719 -0.013594 0.013125 0.779664 -0.617234 0.105579
0.004448 -0.013516 0.008125 0.779664 -0.617234 0.105579
0.005268 -0.011289 0.015156 0.779664 -0.617234 0.105579
0.004448 -0.011484 0.020000 0.779664 -0.617234 0.105579
0.002456 -0.013826 0.008944 -0.783181 -0.615044 0.091371
0.002847 -0.013336 0.015594 -0.783181 -0.615044 0.091371
0.001838 -0.012250 0.014250 -0.783181 -0.615044 0.091371
0.001681 -0.013336 0.005594 -0.783181 -0.615044 0.091371
0.001681 -0.013336 0.005594 -0.958260 -0.282014 0.046967
0.001838 -0.012250 0.014250 -0.958260 -0.282014 0.046967
0.000933 -0.010094 0.009813 -0.958260 -0.282014 0.046967
0.000890 -0.011332 0.000422 -0.958260 -0.282014 0.046967
0.002847 -0.013336 0.015594 -0.798634 -0.559461 0.221783
0.003451 -0.011332 0.022375 -0.798634 -0.559461 0.221783
0.002355 -0.010094 0.022000 -0.798634 -0.559461 0.221783
0.001838 -0.012250 0.014250 -0.798634 -0.559461 0.221783
0.001838 -0.012250 0.014250 -0.960714 -0.253903 0.112083
0.002355 -0.010094 0.022000 -0.960714 -0.253903 0.112083
0.001190 -0.007350 0.019800 -0.960714 -0.253903 0.112083
0.000933 -0.010094 0.009813 -0.960714 -0.253903 0.112083
0.002456 -0.013826 0.008944 -0.623576 -0.781681 0.011303
0.001681 -0.013336 0.005594 -0.623576 -0.781681 0.011303
0.001969 -0.013594 -0.001875 -0.623576 -0.781681 0.011303
0.002880 -0.014297 0.005313 -0.623576 -0.781681 0.011303
0.002880 -0.014297 0.005313 -0.349650 -0.935757 -0.045866
0.001969 -0.013594 -0.001875 -0.349650 -0.935757 -0.045866
0.002552 -0.013516 -0.008125 -0.349650 -0.935757 -0.045866
0.003500 -0.014258 0.000000 -0.349650 -0.935757 -0.045866
0.001681 -0.013336 0.005594 -0.910652 -0.412612 -0.021565
0.000890 -0.011332 0.000422 -0.910652 -0.412612 -0.021565
0.001167 -0.011484 -0.008125 -0.910652 -0.412612 -0.021565
0.001969 -0.013594 -0.001875 -0.910652 -0.412612 -0.021565
0.001969 -0.013594 -0.001875 -0.823304 -0.561536 -0.082753
0.001167 -0.011484 -0.008125 -0.823304 -0.561536 -0.082753
0.001732 -0.011289 -0.015156 -0.823304 -0.561536 -0.082753
0.002552 -0.013516 -0.008125 -0.823304 -0.561536 -0.082753
0.004529 -0.004913 0.027542 0.833946 -0.017340 0.551573
0.005319 -0.003773 0.026531 0.833946 -0.017340 0.551573
0.005163 0.000375 0.026750 0.833946 -0.017340 0.551573
0.004120 -0.002813 0.028375 0.833946 -0.017340 0.551573
0.004120 -0.002813 0.028375 0.620731 0.176432 0.763914
0.005163 0.000375 0.026750 0.620731 0.176432 0.763914
0.004645 0.004000 0.026375 0.620731 0.176432 0.763914
0.003500 0.000000 0.028188 0.620731 0.176432 0.763914
0.005319 -0.003773 0.026531 0.980876 0.025303 0.192981
0.006110 -0.003004 0.022375 0.980876 0.025303 0.192981
0.006067 0.001813 0.022000 0.980876 0.025303 0.192981
0.005163 0.000375 0.026750 0.980876 0.025303 0.192981
0.005163 0.000375 0.026750 0.959929 0.148008 0.237973
0.006067 0.001813 0.022000 0.959929 0.148008 0.237973
0.005810 0.007350 0.019800 0.959929 0.148008 0.237973
0.004645 0.004000 0.026375 0.959929 0.148008 0.237973
0.004529 -0.004913 0.027542 -0.127151 -0.330140 0.935329
0.004120 -0.002813 0.028375 -0.127151 -0.330140 0.935329
0.003150 -0.006625 0.026750 -0.127151 -0.330140 0.935329
0.004087 -0.008023 0.026531 -0.127151 -0.330140 0.935329
0.004087 -0.008023 0.026531 -0.699802 -0.509801 0.500380
0.003150 -0.006625 0.026750 -0.699802 -0.509801 0.500380
0.002355 -0.010094 0.022000 -0.699802 -0.509801 0.500380
0.003451 -0.011332 0.022375 -0.699802 -0.509801 0.500380
0.004120 -0.002813 0.028375 -0.710780 -0.113091 0.694263
0.003500 0.000000 0.028188 -0.710780 -0.113091 0.694263
0.002355 -0.004000 0.026375 -0.710780 -0.113091 0.694263
0.003150 -0.006625 0.026750 -0.710780 -0.113091 0.694263
0.003150 -0.006625 0.026750 -0.936244 -0.204910 0.285410
0.002355 -0.004000 0.026375 -0.936244 -0.204910 0.285410
0.001190 -0.007350 0.019800 -0.936244 -0.204910 0.285410
0.002355 -0.010094 0.022000 -0.936244 -0.204910 0.285410
0.004529 -0.004913 0.027542 0.885175 -0.256657 0.388063
0.004087 -0.008023 0.026531 0.885175 -0.256657 0.388063
0.005031 -0.007969 0.024375 0.885175 -0.256657 0.388063
0.005319 -0.003773 0.026531 0.885175 -0.256657 0.388063
0.005319 -0.003773 0.026531 0.975776 -0.146727 0.162275
0.005031 -0.007969 0.024375 0.975776 -0.146727 0.162275
0.005833 -0.007578 0.020000 0.975776 -0.146727 0.162275
0.006110 -0.003004 0.022375 0.975776 -0.146727 0.162275
0.004087 -0.008023 0.026531 0.758908 -0.557120 0.337160
0.003451 -0.011332 0.022375 0.758908 -0.557120 0.337160
0.004448 -0.011484 0.020000 0.758908 -0.557120 0.337160
0.005031 -0.007969 0.024375 0.758908 -0.557120 0.337160
0.005031 -0.007969 0.024375 0.932775 -0.330824 0.143131
0.004448 -0.011484 0.020000 0.932775 -0.330824 0.143131
0.005268 -0.011289 0.015156 0.932775 -0.330824 0.143131
0.005833 -0.007578 0.020000 0.932775 -0.330824 0.143131
0.004544 -0.013826 -0.008944 0.623576 -0.781681 -0.011303
0.005319 -0.013336 -0.005594 0.623576 -0.781681 -0.011303
0.005031 -0.013594 0.001875 0.623576 -0.781681 -0.011303
0.004120 -0.014297 -0.005313 0.623576 -0.781681 -0.011303
0.004120 -0.014297 -0.005313 0.349650 -0.935757 0.045866
0.005031 -0.013594 0.001875 0.349650 -0.935757 0.045866
0.004448 -0.013516 0.008125 0.349650 -0.935757 0.045866
0.003500 -0.014258 0.000000 0.349650 -0.935757 0.045866
0.005319 -0.013336 -0.005594 0.910652 -0.412612 0.021565
0.006110 -0.011332 -0.000422 0.910652 -0.412612 0.021565
0.005833 -0.011484 0.008125 0.910652 -0.412612 0.021565
0.005031 -0.013594 0.001875 0.910652 -0.412612 0.021565
0.005031 -0.013594 0.001875 0.823304 -0.561536 0.082753
0.005833 -0.011484 0.008125 0.823304 -0.561536 0.082753
0.005268 -0.011289 0.015156 0.823304 -0.561536 0.082753
0.004448 -0.013516 0.008125 0.823304 -0.561536 0.082753
0.004544 -0.013826 -0.008944 0.122476 -0.988201 -0.091971
0.004120 -0.014297 -0.005313 0.122476 -0.988201 -0.091971
0.003281 -0.013594 -0.013125 0.122476 -0.988201 -0.091971
0.004153 -0.013336 -0.015594 0.122476 -0.988201 -0.091971
0.004153 -0.013336 -0.015594 -0.397993 -0.888410 -0.228755
0.003281 -0.013594 -0.013125 -0.397993 -0.888410 -0.228755
0.002552 -0.011484 -0.020000 -0.397993 -0.888410 -0.228755
0.003549 -0.011332 -0.022375 -0.397993 -0.888410 -0.228755
0.004120 -0.014297 -0.005313 -0.387023 -0.921195 -0.040158
0.003500 -0.014258 0.000000 -0.387023 -0.921195 -0.040158
0.002552 -0.013516 -0.008125 -0.387023 -0.921195 -0.040158
0.003281 -0.013594 -0.013125 -0.387023 -0.921195 -0.040158
0.003281 -0.013594 -0.013125 -0.779664 -0.617234 -0.105579
0.002552 -0.013516 -0.008125 -0.779664 -0.617234 -0.105579
0.001732 -0.011289 -0.015156 -0.779664 -0.617234 -0.105579
0.002552 -0.011484 -0.020000 -0.779664 -0.617234 -0.105579
0.004544 -0.013826 -0.008944 0.783181 -0.615044 -0.091371
0.004153 -0.013336 -0.015594 0.783181 -0.615044 -0.091371
0.005163 -0.012250 -0.014250 0.783181 -0.615044 -0.091371
0.005319 -0.013336 -0.005594 0.783181 -0.615044 -0.091371
0.005319 -0.013336 -0.005594 0.958260 -0.282014 -0.046967
0.005163 -0.012250 -0.014250 0.958260 -0.282014 -0.046967
0.006067 -0.010094 -0.009813 0.958260 -0.282014 -0.046967
0.006110 -0.011332 -0.000422 0.958260 -0.282014 -0.046967
0.004153 -0.013336 -0.015594 0.798634 -0.559461 -0.221783
0.003549 -0.011332 -0.022375 0.798634 -0.559461 -0.221783
0.004645 -0.010094 -0.022000 0.798634 -0.559461 -0.221783
0.005163 -0.012250 -0.014250 0.798634 -0.559461 -0.221783
0.005163 -0.012250 -0.014250 0.960714 -0.253903 -0.112083
0.004645 -0.010094 -0.022000 0.960714 -0.253903 -0.112083
0.005810 -0.007350 -0.019800 0.960714 -0.253903 -0.112083
0.006067 -0.010094 -0.009813 0.960714 -0.253903 -0.112083
0.006713 0.004913 -0.008819 0.999152 0.041145 0.001849
0.006595 0.008023 -0.005031 0.999152 0.041145 0.001849
0.006621 0.006625 0.003000 0.999152 0.041145 0.001849
0.006810 0.002813 -0.005313 0.999152 0.041145 0.001849
0.006810 0.002813 -0.005313 0.999722 0.018999 0.013931
0.006621 0.006625 0.003000 0.999722 0.018999 0.013931
0.006577 0.004000 0.009813 0.999722 0.018999 0.013931
0.006789 0.000000 0.000000 0.999722 0.018999 0.013931
0.006595 0.008023 -0.005031 0.992832 0.118011 0.018899
0.006110 0.011332 0.000422 0.992832 0.118011 0.018899
0.006067 0.010094 0.009813 0.992832 0.118011 0.018899
0.006621 0.006625 0.003000 0.992832 0.118011 0.018899
0.006621 0.006625 0.003000 0.995526 0.083386 0.044449
0.006067 0.010094 0.009813 0.995526 0.083386 0.044449
0.005810 0.007350 0.019800 0.995526 0.083386 0.044449
0.006577 0.004000 0.009813 0.995526 0.083386 0.044449
0.006713 0.004913 -0.008819 0.999782 0.003667 -0.020575
0.006810 0.002813 -0.005313 0.999782 0.003667 -0.020575
0.006621 -0.000375 -0.014250 0.999782 0.003667 -0.020575
0.006595 0.003773 -0.015594 0.999782 0.003667 -0.020575
0.006595 0.003773 -0.015594 0.997499 -0.015259 -0.069009
0.006621 -0.000375 -0.014250 0.997499 -0.015259 -0.069009
0.006067 -0.001813 -0.022000 0.997499 -0.015259 -0.069009
0.006110 0.003004 -0.022375 0.997499 -0.015259 -0.069009
0.006810 0.002813 -0.005313 0.999576 -0.026934 -0.011055
0.006789 0.000000 0.000000 0.999576 -0.026934 -0.011055
0.006577 -0.004000 -0.009813 0.999576 -0.026934 -0.011055
0.006621 -0.000375 -0.014250 0.999576 -0.026934 -0.011055
0.006621 -0.000375 -0.014250 0.995886 -0.072263 -0.054678
0.006577 -0.004000 -0.009813 0.995886 -0.072263 -0.054678
0.005810 -0.007350 -0.019800 0.995886 -0.072263 -0.054678
0.006067 -0.001813 -0.022000 0.995886 -0.072263 -0.054678
0.006713 0.004913 -0.008819 0.996559 0.076896 -0.030940
0.006595 0.003773 -0.015594 0.996559 0.076896 -0.030940
0.006344 0.007969 -0.013125 0.996559 0.076896 -0.030940
0.006595 0.008023 -0.005031 0.996559 0.076896 -0.030940
0.006595 0.008023 -0.005031 0.981477 0.189208 -0.030070
0.006344 0.007969 -0.013125 0.981477 0.189208 -0.030070
0.005833 0.011484 -0.008125 0.981477 0.189208 -0.030070
0.006110 0.011332 0.000422 0.981477 0.189208 -0.030070
0.006595 0.003773 -0.015594 0.991204 0.104560 -0.081125
0.006110 0.003004 -0.022375 0.991204 0.104560 -0.081125
0.005833 0.007578 -0.020000 0.991204 0.104560 -0.081125
0.006344 0.007969 -0.013125 0.991204 0.104560 -0.081125
0.006344 0.007969 -0.013125 0.961991 0.259407 -0.085331
0.005833 0.007578 -0.020000 0.961991 0.259407 -0.085331
0.005268 0.011289 -0.015156 0.961991 0.259407 -0.085331
0.005833 0.011484 -0.008125 0.961991 0.259407 -0.085331
0.006713 -0.004913 0.008819 0.999782 -0.003667 0.020575
0.006810 -0.002813 0.005313 0.999782 -0.003667 0.020575
0.006621 0.000375 0.014250 0.999782 -0.003667 0.020575
0.006595 -0.003773 0.015594 0.999782 -0.003667 0.020575
0.006595 -0.003773 0.015594 0.997499 0.015259 0.069009
0.006621 0.000375 0.014250 0.997499 0.015259 0.069009
0.006067 0.001813 0.022000 0.997499 0.015259 0.069009
0.006110 -0.003004 0.022375 0.997499 0.015259 0.069009
0.006810 -0.002813 0.005313 0.999576 0.026934 0.011055
0.006789 0.000000 0.000000 0.999576 0.026934 0.011055
0.006577 0.004000 0.009813 0.999576 0.026934 0.011055
0.006621 0.000375 0.014250 0.999576 0.026934 0.011055
0.006621 0.000375 0.014250 0.995886 0.072263 0.054678
0.006577 0.004000 0.009813 0.995886 0.072263 0.054678
0.005810 0.007350 0.019800 0.995886 0.072263 0.054678
0.006067 0.001813 0.022000 0.995886 0.072263 0.054678
0.006713 -0.004913 0.008819 0.996559 -0.076896 0.030940
0.006595 -0.003773 0.015594 0.996559 -0.076896 0.030940
0.006344 -0.007969 0.013125 0.996559 -0.076896 0.030940
0.006595 -0.008023 0.005031 0.996559 -0.076896 0.030940
0.006595 -0.008023 0.005031 0.981477 -0.189208 0.030070
0.006344 -0.007969 0.013125 0.981477 -0.189208 0.030070
0.005833 -0.011484 0.008125 0.981477 -0.189208 0.030070
0.006110 -0.011332 -0.000422 0.981477 -0.189208 0.030070
0.006595 -0.003773 0.015594 0.991204 -0.104560 0.081125
0.006110 -0.003004 0.022375 0.991204 -0.104560 0.081125
0.005833 -0.007578 0.020000 0.991204 -0.104560 0.081125
0.006344 -0.007969 0.013125 0.991204 -0.104560 0.081125
0.006344 -0.007969 0.013125 0.961991 -0.259407 0.085331
0.005833 -0.007578 0.020000 0.961991 -0.259407 0.085331
0.005268 -0.011289 0.015156 0.961991 -0.259407 0.085331
0.005833 -0.011484 0.008125 0.961991 -0.259407 0.085331
0.006713 -0.004913 0.008819 0.999152 -0.041145 -0.001849
0.006595 -0.008023 0.005031 0.999152 -0.041145 -0.001849
0.006621 -0.006625 -0.003000 0.999152 -0.041145 -0.001849
0.006810 -0.002813 0.005313 0.999152 -0.041145 -0.001849
0.006810 -0.002813 0.005313 0.999722 -0.018999 -0.013931
0.006621 -0.006625 -0.003000 0.999722 -0.018999 -0.013931
0.006577 -0.004000 -0.009813 0.999722 -0.018999 -0.013931
0.006789 0.000000 0.000000 0.999722 -0.018999 -0.013931
0.006595 -0.008023 0.005031 0.992832 -0.118011 -0.018899
0.006110 -0.011332 -0.000422 0.992832 -0.118011 -0.018899
0.006067 -0.010094 -0.009813 0.992832 -0.118011 -0.018899
0.006621 -0.006625 -0.003000 0.992832 -0.118011 -0.018899
0.006621 -0.006625 -0.003000 0.995526 -0.083386 -0.044449
0.006067 -0.010094 -0.009813 0.995526 -0.083386 -0.044449
0.005810 -0.007350 -0.019800 0.995526 -0.083386 -0.044449
0.006577 -0.004000 -0.009813 0.995526 -0.083386 -0.044449
4 0 1 2 3
4 4 5 6 7
4 8 9 10 11
4 12 13 14 15
4 16 17 18 19
4 20 21 22 23
4 24 25 26 27
4 28 29 30 31
4 32 33 34 35
4 36 37 38 39
4 40 41 42 43
4 44 45 46 47
4 48 49 50 51
4 52 53 54 55
4 56 57 58 59
4 60 61 62 63
4 64 65 66 67
4 68 69 70 71
4 72 73 74 75
4 76 77 78 79
4 80 81 82 83
4 84 85 86 87
4 88 89 90 91
4 92 93 94 95
4 96 97 98 99
4 100 101 102 103
4 104 105 106 107
4 108 109 110 111
4 112 113 114 115
4 116 117 118 119
4 120 121 122 123
4 124 125 126 127
4 128 129 130 131
4 132 133 134 135
4 136 137 138 139
4 140 141 142 143
4 144 145 146 147
4 148 149 150 151
4 152 153 154 155
4 156 157 158 159
4 160 161 162 163
4 164 165 166 167
4 168 169 170 171
4 172 173 174 175
4 176 177 178 179
4 180 181 182 183
4 184 185 186 187
4 188 189 190 191
4 192 193 194 195
4 196 197 198 199
4 200 201 202 203
4 204 205 206 207
4 208 209 210 211
4 212 213 214 215
4 216 217 218 219
4 220 221 222 223
4 224 225 226 227
4 228 229 230 231
4 232 233 234 235
4 236 237 238 239
4 240 241 242 243
4 244 245 246 247
4 248 249 250 251
4 252 253 254 255
4 256 257 258 259
4 260 261 262 263
4 264 265 266 267
4 268 269 270 271
4 272 273 274 275
4 276 277 278 279
4 280 281 282 283
4 284 285 286 287
4 288 289 290 291
4 292 293 294 295
4 296 297 298 299
4 300 301 302 303
4 304 305 306 307
4 308 309 310 311
4 312 313 314 315
4 316 317 318 319
4 320 321 322 323
4 324 325 326 327
4 328 329 330 331
4 332 333 334 335
4 336 337 338 339
4 340 341 342 343
4 344 345 346 347
4 348 349 350 351
4 352 353 354 355
4 356 357 358 359
4 360 361 362 363
4 364 365 366 367
4 368 369 370 371
4 372 373 374 375
4 376 377 378 379
4 380 381 382 383
4 384 385 386 387
4 388 389 390 391
4 392 393 394 395
4 396 397 398 399
4 400 401 402 403
4 404 405 406 407
4 408 409 410 411
4 412 413 414 415
4 416 417 418 419
4 420 421 422 423
4 424 425 426 427
4 428 429 430 431
4 432 433 434 435
4 436 437 438 439
4 440 441 442 443
4 444 445 446 447
4 448 449 450 451
4 452 453 454 455
4 456 457 458 459
4 460 461 462 463
4 464 465 466 467
4 468 469 470 471
4 472 473 474 475
4 476 477 478 479
4 480 481 482 483
4 484 485 486 487
4 488 489 490 491
4 492 493 494 495
4 496 497 498 499
4 500 501 502 503
4 504 505 506 507
4 508 509 510 511
4 512 513 514 515
4 516 517 518 519
4 520 521 522 523
4 524 525 526 527
4 528 529 530 531
4 532 533 534 535
4 536 537 538 539
4 540 541 542 543
4 544 545 546 547
4 548 549 550 551
4 552 553 554 555
4 556 557 558 559
4 560 561 562 563
4 564 565 566 567
4 568 569 570 571
4 572 573 574 575
