ply
format ascii 1.0
comment Created by Blender 2.71 (sub 0) - www.blender.org, source file: ''
element vertex 24
property float x
property float y
property float z
property float nx
property float ny
property float nz
element face 12
property list uchar uint vertex_indices
end_header
0.000000 -0.015000 0.030000 -1.000000 0.000000 0.000000
0.000000 0.015000 0.030000 -1.000000 0.000000 0.000000
0.000000 0.015000 -0.030000 -1.000000 0.000000 0.000000
0.007000 0.015000 -0.030000 -0.000000 1.000000 0.000000
0.000000 0.015000 -0.030000 -0.000000 1.000000 0.000000
0.000000 0.015000 0.030000 -0.000000 1.000000 0.000000
0.000000 -0.015000 -0.030000 -1.000000 -0.000000 -0.000000
0.007000 -0.015000 -0.030000 0.000000 0.000000 -1.000000
0.000000 -0.015000 -0.030000 0.000000 0.000000 -1.000000
0.000000 0.015000 -0.030000 0.000000 0.000000 -1.000000
0.007000 0.015000 -0.030000 0.000000 0.000000 -1.000000
0.007000 0.015000 0.030000 0.000000 0.000000 1.000000
0.000000 0.015000 0.030000 0.000000 0.000000 1.000000
0.000000 -0.015000 0.030000 0.000000 0.000000 1.000000
0.007000 0.015000 0.030000 -0.000000 1.000000 0.000000
0.007000 -0.015000 0.030000 0.000000 -1.000000 0.000000
0.000000 -0.015000 0.030000 0.000000 -1.000000 0.000000
0.000000 -0.015000 -0.030000 0.000000 -1.000000 0.000000
0.007000 -0.015000 0.030000 0.000000 -0.000000 1.000000
0.007000 -0.015000 -0.030000 0.000000 -1.000000 0.000000
0.007000 0.015000 0.030000 1.000000 0.000000 -0.000000
0.007000 -0.015000 -0.030000 1.000000 0.000000 -0.000000
0.007000 0.015000 -0.030000 1.000000 0.000000 -0.000000
0.007000 -0.015000 0.030000 1.000000 0.000000 0.000000
3 0 1 2
3 3 4 5
3 6 0 2
3 7 8 9
3 10 7 9
3 11 12 13
3 14 3 5
3 15 16 17
3 11 13 18
3 15 17 19
3 20 21 22
3 20 23 21
